<svg xmlns="http://www.w3.org/2000/svg" viewBox="0 0 24 24" width="50px"><path d="M22.5 17.25a5.25 5.25 0 1 1-10.5 0 5.25 5.25 0 0 1 10.5 0m1.5 0a6.75 6.75 0 1 0-13.5 0 6.75 6.75 0 0 0 13.5 0m-4.676-2.194-2.905 3.873h-.002l-1.499-1.5a.75.75 0 1 0-1.06 1.061l1.5 1.5a1.502 1.502 0 0 0 2.26-.16l2.906-3.874a.75.75 0 0 0-1.2-.9M8.25 16.5h-6a.75.75 0 0 1-.75-.75V3.765a.75.75 0 0 1 .75-.75h13.5a.75.75 0 0 1 .75.75V8.25a.75.75 0 0 0 1.5 0V3.765a2.25 2.25 0 0 0-2.25-2.25H2.25A2.25 2.25 0 0 0 0 3.765V15.75A2.25 2.25 0 0 0 2.25 18h6a.75.75 0 0 0 0-1.5m-7.5-9h16.5V6H.75zm5.243-3.75v-3a.75.75 0 0 0-1.5 0v3a.75.75 0 0 0 1.5 0m7.5 0v-3a.75.75 0 0 0-1.5 0v3a.75.75 0 0 0 1.5 0"></path></svg>