<?xml version="1.0" standalone="no"?>
<!DOCTYPE svg PUBLIC "-//W3C//DTD SVG 20010904//EN"
 "http://www.w3.org/TR/2001/REC-SVG-20010904/DTD/svg10.dtd">
<svg version="1.0" xmlns="http://www.w3.org/2000/svg"
 width="1024.000000pt" height="1024.000000pt" viewBox="0 0 1024.000000 1024.000000"
 preserveAspectRatio="xMidYMid meet">

<g transform="translate(0.000000,1024.000000) scale(0.100000,-0.100000)"
fill="#000000" stroke="none">
<path d="M4968 8701 c-170 -55 -318 -211 -352 -371 l-5 -25 -128 0 c-128 0
-129 0 -179 -32 -78 -50 -79 -55 -77 -289 1 -193 3 -206 25 -246 16 -30 37
-50 68 -65 l44 -23 759 0 c824 0 783 -3 839 57 50 52 58 88 57 255 -1 240 -11
273 -104 321 -31 16 -64 21 -151 25 l-111 4 -12 49 c-22 85 -148 232 -251 292
-110 64 -303 86 -422 48z m230 -376 c49 -21 81 -52 103 -100 26 -55 24 -102
-7 -164 -73 -146 -270 -147 -344 0 -78 153 89 330 248 264z"/>
<path d="M2906 8284 c-476 -86 -833 -434 -921 -897 -13 -69 -15 -364 -15
-2346 0 -2473 -4 -2291 57 -2476 45 -137 134 -291 227 -394 104 -113 270 -220
422 -271 186 -63 35 -60 2438 -60 2179 -1 2193 -1 2294 20 217 44 414 142 566
281 160 146 286 402 316 642 13 109 14 4269 0 4457 -16 217 -76 397 -193 578
-144 223 -393 384 -702 455 -84 19 -128 21 -642 24 l-551 4 10 -43 c5 -24 13
-131 17 -238 l6 -195 455 -6 c505 -6 527 -8 673 -79 228 -112 361 -297 401
-560 3 -19 6 -987 7 -2150 l1 -2115 -22 -65 c-72 -209 -183 -340 -374 -446
-133 -73 -193 -85 -451 -93 -126 -4 -1020 -6 -1985 -5 -1752 2 -1755 2 -1843
23 -262 63 -442 191 -536 383 -80 161 -74 -23 -72 2353 1 1369 5 2140 11 2177
14 74 54 191 82 236 68 111 218 236 342 286 130 51 194 57 657 54 l426 -3 6
215 c4 118 10 227 13 243 l6 27 -523 -1 c-407 -1 -542 -4 -603 -15z"/>
<path d="M3202 7330 c-43 -10 -100 -56 -124 -100 -17 -33 -18 -58 -16 -381 l3
-346 29 -41 c54 -78 57 -78 498 -72 370 5 388 6 414 26 66 49 69 58 72 258 2
101 0 197 -5 213 l-8 30 -109 -103 -110 -103 -4 -61 -5 -62 -32 6 c-29 6 -39
1 -88 -44 -117 -107 -200 -107 -302 1 -42 44 -51 49 -91 49 l-44 0 0 60 c0 58
-2 63 -43 108 -68 73 -137 169 -137 188 0 34 77 121 131 148 100 49 164 32
273 -73 48 -47 80 -71 83 -63 6 15 21 34 167 207 60 72 116 138 124 148 14 16
-2 17 -314 16 -181 -1 -344 -5 -362 -9z"/>
<path d="M4052 7315 c-46 -20 -270 -252 -395 -409 -27 -34 -56 -65 -64 -70
-11 -6 -38 16 -108 88 -95 96 -124 114 -171 102 -33 -9 -84 -58 -84 -82 0 -34
277 -340 317 -350 53 -14 118 45 291 261 40 50 109 124 154 165 218 199 225
210 171 269 -34 37 -68 45 -111 26z"/>
<path d="M6484 7300 c-101 -15 -192 -79 -237 -165 -35 -68 -47 -135 -47 -259
l0 -118 33 6 c51 9 1031 11 1046 2 10 -7 12 20 9 140 -3 140 -5 152 -32 203
-38 73 -107 145 -169 176 -51 25 -52 25 -301 24 -138 -1 -274 -5 -302 -9z"/>
<path d="M4465 6926 c-17 -7 -43 -28 -58 -45 -22 -27 -27 -42 -27 -86 0 -49 4
-58 35 -90 l36 -35 651 0 c643 0 651 0 685 21 85 53 85 168 -1 227 l-32 22
-630 0 c-500 -1 -635 -3 -659 -14z"/>
<path d="M6702 6603 l-513 -3 7 -88 c10 -140 -46 -128 562 -124 284 2 520 7
524 10 4 4 8 52 9 107 l2 100 -39 0 c-21 0 -270 -1 -552 -2z"/>
<path d="M6265 6213 l-60 -4 2 -1254 1 -1255 63 -113 c34 -61 90 -159 125
-217 34 -58 103 -177 152 -265 50 -88 103 -182 119 -210 33 -59 70 -77 110
-55 15 9 46 52 75 105 27 50 68 122 90 160 23 39 55 97 73 130 45 86 158 283
186 327 13 20 39 64 58 96 l33 60 2 1251 1 1251 -116 0 -116 0 -6 -116 c-3
-64 -3 -207 0 -318 3 -110 2 -568 -2 -1016 l-7 -815 -88 0 -88 0 -6 50 c-3 28
-6 537 -6 1133 l0 1083 -107 -3 -108 -3 -3 -1142 -2 -1142 -28 15 c-30 16 -99
19 -134 5 l-23 -9 -2 752 c0 413 -1 925 -2 1139 l-1 387 -62 -2 c-35 -1 -90
-3 -123 -5z m385 -2513 c102 -106 109 -106 214 -1 l79 80 53 -56 53 -56 -99
-185 -98 -185 -99 2 c-80 1 -100 5 -111 19 -21 27 -172 305 -178 327 -3 14 10
36 48 78 29 31 54 57 57 57 2 0 39 -36 81 -80z"/>
<path d="M3165 6188 c-32 -17 -76 -61 -91 -90 -11 -22 -14 -94 -14 -371 l0
-343 29 -45 c16 -25 45 -56 64 -68 35 -21 39 -22 426 -19 377 3 390 4 418 24
15 11 38 36 51 54 22 33 22 36 22 403 l0 370 -26 34 c-48 64 -43 63 -471 63
-264 -1 -394 -4 -408 -12z m425 -198 l265 0 2 -265 1 -265 -289 0 -289 0 0
271 0 271 23 -6 c12 -3 141 -6 287 -6z"/>
<path d="M4950 5851 c-436 -6 -478 -8 -503 -24 -36 -23 -67 -74 -67 -110 0
-36 32 -98 60 -115 17 -10 157 -13 671 -12 725 0 692 -3 729 70 32 63 27 96
-24 146 l-43 44 -100 0 c-55 0 -133 1 -174 3 -41 2 -288 1 -549 -2z"/>
<path d="M3208 5069 c-48 -8 -103 -44 -128 -84 -20 -33 -21 -44 -18 -383 l3
-349 29 -41 c56 -82 51 -81 391 -78 538 6 479 1 521 38 64 56 64 59 64 448 l0
350 -35 39 c-19 21 -48 43 -63 49 -29 12 -702 21 -764 11z m642 -408 c0 -109
3 -226 6 -260 l7 -61 -292 0 -291 0 0 123 c0 68 3 185 7 260 l6 137 279 0 278
0 0 -199z"/>
<path d="M4465 4764 c-45 -23 -63 -43 -76 -81 -16 -50 -3 -98 37 -138 l35 -35
647 0 c628 0 648 1 680 20 42 26 72 76 72 122 0 48 -44 100 -98 116 -28 9
-212 12 -653 12 -537 0 -618 -2 -644 -16z"/>
<path d="M3184 3934 c-52 -18 -84 -43 -105 -84 -17 -32 -19 -63 -19 -375 0
-336 0 -341 24 -390 24 -53 75 -104 104 -106 9 0 188 0 397 1 l380 1 35 28
c75 60 73 50 71 459 -3 408 -1 398 -73 449 l-38 26 -369 2 c-280 1 -379 -1
-407 -11z m402 -214 l264 0 0 -265 0 -265 -285 0 -285 0 0 83 c0 45 3 167 7
270 5 157 9 187 20 182 8 -3 134 -5 279 -5z"/>
<path d="M4456 3719 c-49 -26 -71 -64 -70 -118 0 -51 28 -102 65 -122 14 -7
224 -10 661 -9 700 1 669 -2 722 60 58 69 18 173 -76 199 -32 9 -206 11 -658
9 -540 -3 -618 -5 -644 -19z"/>
<path d="M2592 3280 c0 -14 2 -19 5 -12 2 6 2 18 0 25 -3 6 -5 1 -5 -13z"/>
</g>
</svg>
