<?xml version="1.0" encoding="UTF-8"?>
<svg version="1.1" xmlns="http://www.w3.org/2000/svg" width="512" height="512">
<path d="M0 0 C1.31784231 -0.00467997 2.63568462 -0.00935994 3.99346155 -0.01418173 C7.60392991 -0.02656029 11.21415657 -0.02058237 14.82462513 -0.01122308 C18.7367469 -0.00437828 22.64882981 -0.01494042 26.5609436 -0.02316284 C34.20577038 -0.03644459 41.85050837 -0.03364748 49.49533851 -0.02492492 C55.7124498 -0.01812727 61.92953636 -0.01724061 68.14665031 -0.02049637 C69.03424216 -0.02095607 69.92183401 -0.02141577 70.83632259 -0.0218894 C72.63989335 -0.02284865 74.4434641 -0.02382129 76.24703484 -0.02480717 C93.12574154 -0.03334465 110.00439922 -0.02355252 126.88309788 -0.00740607 C141.3422914 0.00599793 155.80141264 0.00366514 170.26060486 -0.01016235 C187.0838251 -0.02624325 203.90700247 -0.03252326 220.73022932 -0.02332556 C222.52655788 -0.02236999 224.32288644 -0.02142688 226.11921501 -0.02049637 C227.00286373 -0.02003354 227.88651245 -0.01957072 228.79693841 -0.01909386 C235.00170139 -0.01651167 241.20643701 -0.02085824 247.41119576 -0.02793503 C254.97962386 -0.03637807 262.54795871 -0.03401114 270.11637623 -0.0180928 C273.9723494 -0.01024798 277.82816749 -0.00705318 281.68413925 -0.01704025 C285.87590359 -0.02773228 290.06728169 -0.01490355 294.2590332 0 C295.46090698 -0.00669217 296.66278075 -0.01338433 297.90107495 -0.02027929 C317.89336018 0.11688423 337.79434835 6.9425493 352.06602478 21.38095093 C364.71980029 34.78057906 372.2552098 53.00573894 372.1569519 71.4443512 C372.15483422 72.13183687 372.15271654 72.81932254 372.15053469 73.52764112 C372.1425119 75.81887657 372.12747077 78.11001383 372.11265564 80.4012146 C372.10586108 82.04925312 372.09965051 83.69729414 372.09397888 85.34533691 C372.08154632 88.88930946 372.06695691 92.4332647 372.05129814 95.97722435 C372.0285242 101.58855897 372.02289961 107.19982676 372.02197266 112.811203 C372.02179089 113.75957651 372.02160912 114.70795001 372.02142185 115.68506211 C372.02097214 119.59561153 372.02105411 123.50616082 372.02125728 127.41671026 C372.02099266 138.50342536 372.00425955 149.58957564 371.9393158 160.67611694 C371.88778946 169.49208939 371.87171576 178.30733157 371.89677721 187.12343007 C371.90869177 191.78394295 371.90294455 196.44289619 371.85409355 201.10320091 C371.80848276 205.4911673 371.81010447 209.87665733 371.8468399 214.26468277 C371.85207884 215.86782538 371.84046986 217.471133 371.81005287 219.07399559 C371.66179944 227.4032016 372.03850731 233.15644149 377.94567871 239.65116882 C379.64616609 241.23455012 381.35236672 242.81183344 383.06602478 244.38095093 C385.17057185 247.10467534 386.99118983 249.926428 388.75352478 252.88095093 C389.43705017 254.0175415 389.43705017 254.0175415 390.13438416 255.17709351 C393.29417412 260.62236804 395.86116178 266.17432249 398.06602478 272.06845093 C398.33245789 272.77872437 398.59889099 273.4889978 398.87339783 274.22079468 C403.1081419 286.40064703 404.51470279 298.4840959 404.47007751 311.31161499 C404.47580013 312.73439055 404.48277157 314.15716154 404.49087524 315.57992554 C404.50860416 319.39377176 404.50767829 323.20738545 404.50193286 327.02126026 C404.49881421 330.22209526 404.5049622 333.42288728 404.51097161 336.62371612 C404.52494579 344.17792291 404.52351255 351.73201641 404.5120697 359.28622437 C404.50056884 367.04981333 404.51471326 374.81305763 404.54146618 382.57660127 C404.56368053 389.2768324 404.57024846 395.97695575 404.56438977 402.67722106 C404.56103588 406.66416312 404.56333117 410.65088384 404.58064079 414.63779449 C404.59620233 418.38422461 404.59205378 422.13014571 404.57333565 425.8765564 C404.56794525 427.88891412 404.58208937 429.90129526 404.59703064 431.91360474 C404.49945541 444.03751441 401.53789771 453.52399287 393.06602478 462.38095093 C383.91519825 470.9704814 373.49776626 474.75922934 361.03086853 474.59188843 C349.76441701 473.79032271 339.39004095 468.74638901 331.66368103 460.49032593 C322.20872689 448.0070124 322.06602478 436.93530465 322.06602478 421.38095093 C207.22602478 421.38095093 92.38602478 421.38095093 -25.93397522 421.38095093 C-25.93397522 426.66095093 -25.93397522 431.94095093 -25.93397522 437.38095093 C-27.97481628 448.94571692 -32.49407694 458.99869778 -41.93397522 466.38095093 C-51.67802926 472.78334152 -61.27333302 475.61162557 -72.93397522 474.38095093 C-85.07641844 471.83074806 -94.70117975 466.60042313 -101.93397522 456.38095093 C-105.82753208 449.68322617 -108.05246248 444.23343634 -108.07441711 436.45814514 C-108.08012726 435.24585739 -108.0858374 434.03356964 -108.09172058 432.7845459 C-108.0929659 431.44387828 -108.09409101 430.10321054 -108.09510803 428.76254272 C-108.09973861 427.34788382 -108.10476359 425.93322616 -108.1101532 424.51856995 C-108.12326528 420.67494749 -108.12972106 416.8313425 -108.13416386 412.98770118 C-108.13709947 410.58078069 -108.14120543 408.17386491 -108.14566803 405.76694679 C-108.15934636 398.22081261 -108.1690086 390.67468927 -108.17286992 383.12854356 C-108.1773369 374.44813706 -108.19481979 365.76788912 -108.22387052 357.08753079 C-108.24559103 350.36115349 -108.25557987 343.63482041 -108.25691104 336.90840846 C-108.25795266 332.89995873 -108.26372048 328.89165794 -108.28173065 324.88324547 C-108.2983892 321.10175343 -108.30028217 317.32051936 -108.29159164 313.53900337 C-108.29047182 311.51537296 -108.30405528 309.49175044 -108.31834412 307.46817017 C-108.26328285 295.17581638 -106.1837882 283.40309212 -101.80897522 271.88095093 C-101.36110657 270.68985718 -101.36110657 270.68985718 -100.90419006 269.47470093 C-95.96955548 256.874345 -88.53859214 244.98556785 -78.93397522 235.38095093 C-78.83130439 233.21026786 -78.8004169 231.0361881 -78.79594421 228.86308289 C-78.79312293 228.17381893 -78.79030165 227.48455497 -78.78739488 226.77440423 C-78.77901143 224.4470343 -78.77770738 222.11971171 -78.77626038 219.79232788 C-78.77159446 218.13018661 -78.76645126 216.46804663 -78.76086426 214.8059082 C-78.74955872 211.21548392 -78.74113601 207.62506806 -78.73474503 204.03463173 C-78.7240745 198.34723946 -78.70382792 192.65990692 -78.68162537 186.97254944 C-78.6196831 170.79547897 -78.56581764 154.61841043 -78.53260803 138.44125366 C-78.5142025 129.51483035 -78.48518425 120.58850561 -78.44460332 111.66215485 C-78.42361608 106.94111473 -78.40808803 102.22019848 -78.40579605 97.49910927 C-78.40363212 93.04623167 -78.38758696 88.59361103 -78.36140633 84.14081192 C-78.3542752 82.51641067 -78.35208187 80.89197806 -78.3555088 79.26756477 C-78.39385454 57.61294377 -73.04456896 37.67450489 -57.98475647 21.34579468 C-41.62990948 5.67629366 -22.30556333 -0.12443077 0 0 Z M-47.74647522 42.63095093 C-54.2981999 51.44402739 -57.06325311 61.98892859 -57.05422974 72.83502197 C-57.0556044 74.11380722 -57.05697906 75.39259247 -57.05839539 76.71012878 C-57.05485693 78.11456323 -57.05122213 79.51899743 -57.04750061 80.9234314 C-57.04721834 82.4119822 -57.04737725 83.90053314 -57.04794312 85.38908386 C-57.04822953 89.41960401 -57.04235794 93.45009429 -57.03536916 97.48060751 C-57.02910973 101.69666485 -57.02852977 105.91272291 -57.02734375 110.12878418 C-57.02423807 118.10780839 -57.01603497 126.08681886 -57.00599426 134.06583703 C-56.99480943 143.15165389 -56.9893167 152.23747141 -56.98429883 161.32329345 C-56.97385172 180.00918705 -56.95626705 198.69506789 -56.93397522 217.38095093 C-53.80880975 215.90213368 -50.68387112 214.42283771 -47.55897522 212.94345093 C-46.66952209 212.52257202 -45.78006897 212.10169312 -44.86366272 211.6680603 C-44.01288147 211.26522827 -43.16210022 210.86239624 -42.28553772 210.44735718 C-41.50001526 210.07554321 -40.7144928 209.70372925 -39.90516663 209.32064819 C-38.57534622 208.68670235 -37.25164274 208.03978469 -35.93397522 207.38095093 C-35.92781189 205.54488281 -35.92781189 205.54488281 -35.92152405 203.67172241 C-35.89948059 199.05852158 -35.84493695 194.44614355 -35.78138733 189.83334351 C-35.75842451 187.85035181 -35.74386353 185.86724192 -35.73841858 183.88412476 C-35.67577674 164.80727622 -33.01095395 150.12309262 -19.62147522 135.63095093 C-8.36460887 124.9757879 5.74116269 121.23847432 20.82823181 121.21981812 C21.79494308 121.21485321 22.76165436 121.20988831 23.75765991 121.20477295 C26.94639304 121.1902048 30.13507638 121.1833574 33.32383728 121.17782593 C35.55095927 121.17206906 37.77808126 121.1663114 40.00520325 121.16055298 C44.67391693 121.15005747 49.34261347 121.14420565 54.01133728 121.14071655 C59.96933434 121.13524204 65.92710172 121.11122997 71.88502693 121.0827446 C76.48693993 121.06404132 81.08879852 121.05890848 85.69074631 121.05738068 C87.88579943 121.05436979 90.08085196 121.04639467 92.27586746 121.0331955 C118.71349988 120.88559633 118.71349988 120.88559633 131.06602478 127.81845093 C132.11789978 128.39466187 133.16977478 128.9708728 134.25352478 129.56454468 C136.91489903 131.28334888 138.85646019 133.13686189 141.06602478 135.38095093 C141.72602478 135.38095093 142.38602478 135.38095093 143.06602478 135.38095093 C143.43727478 136.30907593 143.43727478 136.30907593 143.81602478 137.25595093 C145.27231117 139.7316378 146.44414984 140.33220095 149.06602478 141.38095093 C150.44165332 140.09129917 151.77368871 138.754058 153.06602478 137.38095093 C153.06602478 136.72095093 153.06602478 136.06095093 153.06602478 135.38095093 C153.63965759 135.1102478 154.21329041 134.83954468 154.80430603 134.56063843 C157.10292583 133.36170375 159.13392682 131.99623292 161.25352478 130.50595093 C171.61788753 123.55114123 181.76301736 121.07186753 194.15293884 121.10629272 C195.1184819 121.10118179 196.08402496 121.09607086 197.0788269 121.09080505 C200.24649896 121.07699269 203.41395132 121.07785986 206.58164978 121.08016968 C208.80208923 121.07627751 211.02252794 121.07194178 213.2429657 121.06718445 C217.88957638 121.05973968 222.53611106 121.0600004 227.182724 121.0652771 C233.10804846 121.07106226 239.03305937 121.05415503 244.95833206 121.03093243 C249.54313445 121.01612687 254.12786257 121.01533277 258.71268463 121.01844215 C260.89574045 121.01793214 263.07880079 121.01275506 265.26183319 121.00263023 C285.33767728 120.92095389 301.53741652 122.43963211 316.78086853 136.98251343 C330.65494314 151.54436268 331.82600141 167.6888023 331.87852478 186.81845093 C331.90172255 188.82173273 331.92709861 190.82499054 331.95469666 192.82821655 C332.01687092 197.67921795 332.04973968 202.5295874 332.06602478 207.38095093 C332.57053162 207.61805786 333.07503845 207.85516479 333.59483337 208.09945679 C335.87701551 209.17220331 338.15902213 210.24532267 340.44102478 211.31845093 C341.23508728 211.69163452 342.02914978 212.06481812 342.84727478 212.4493103 C343.60782166 212.80702515 344.36836853 213.16473999 345.15196228 213.53329468 C345.85369568 213.86321411 346.55542908 214.19313354 347.27842712 214.53305054 C348.54766459 215.13508027 349.8095524 215.75271474 351.06602478 216.38095093 C351.15974669 197.08248514 351.23013983 177.78406598 351.27327347 158.48541927 C351.29383953 149.52335407 351.32184523 140.56143083 351.36778259 131.59945679 C351.40783382 123.78204402 351.4335008 115.96473415 351.44237876 108.14722162 C351.44756278 104.01344812 351.4596205 99.87996879 351.48894501 95.74629021 C351.51640434 91.84334649 351.52440932 87.94081382 351.51845551 84.03778267 C351.51954229 82.61694722 351.52731268 81.1960958 351.54284668 79.77534485 C351.72198725 62.52241709 347.79751137 48.35720701 335.75352478 35.56845093 C325.86983655 26.18817636 314.02724497 21.26727514 300.3949337 21.24952316 C299.282668 21.24568202 298.17040231 21.24184087 297.02443159 21.23788333 C295.81277251 21.23874981 294.60111344 21.23961629 293.35273743 21.24050903 C292.05750802 21.23753791 290.76227861 21.23456679 289.42779982 21.23150563 C285.83881882 21.22345698 282.24985784 21.22164725 278.66086888 21.22090816 C274.78749257 21.21905387 270.91412656 21.21150463 267.04075623 21.20477295 C258.57363511 21.19120407 250.10651874 21.1851671 241.63938856 21.18076229 C236.34963983 21.17799731 231.05989292 21.17375947 225.77014542 21.16925812 C211.11637423 21.15706712 196.4626045 21.14676761 181.80882835 21.14338303 C180.40262199 21.14305368 180.40262199 21.14305368 178.96800742 21.14271767 C178.02832807 21.1424994 177.08864873 21.14228112 176.12049425 21.14205623 C174.21643281 21.14161276 172.31237137 21.1411662 170.40830994 21.14071655 C168.99159779 21.14038441 168.99159779 21.14038441 167.5462652 21.14004555 C152.24846328 21.13609902 136.95070904 21.11864867 121.65292554 21.09535703 C105.93646328 21.07162164 90.22002492 21.05918017 74.50354445 21.05801511 C65.683569 21.05709955 56.86365566 21.05137744 48.04369736 21.0331955 C40.53209825 21.01776494 33.02058047 21.01269143 25.50896852 21.0209336 C21.67962502 21.02482972 17.85044515 21.02396156 14.02112198 21.00987625 C9.8610356 20.99471489 5.70131492 21.00303451 1.54121399 21.01345825 C-0.25619812 21.00137365 -0.25619812 21.00137365 -2.08992159 20.9890449 C-21.27844051 21.10115412 -35.36307671 28.0496332 -47.74647522 42.63095093 Z M-8.18397522 153.63095093 C-19.31781604 168.81346113 -14.93397522 181.08474251 -14.93397522 201.38095093 C35.55602478 201.05095093 86.04602478 200.72095093 138.06602478 200.38095093 C139.38145948 173.33240374 139.38145948 173.33240374 127.87852478 150.63095093 C121.96267872 145.05241188 114.15667606 141.27536722 105.96980286 141.24050903 C105.16258286 141.23479889 104.35536285 141.22908875 103.52368164 141.22320557 C102.64675156 141.22208771 101.76982147 141.22096985 100.86631775 141.21981812 C99.93570023 141.21485321 99.0050827 141.20988831 98.04626465 141.20477295 C94.96690632 141.1901672 91.88759956 141.18335078 88.80821228 141.17782593 C86.66312153 141.17207172 84.51803079 141.16631402 82.37294006 141.16055298 C77.87219504 141.1500465 73.37146785 141.14420199 68.87071228 141.14071655 C63.12096349 141.13524263 57.3714528 141.11123656 51.62177849 141.0827446 C47.18807807 141.06405957 42.75443424 141.05890942 38.32069778 141.05738068 C36.2021416 141.0543652 34.08358615 141.04637424 31.96506882 141.0331955 C28.99056519 141.0160177 26.01663297 141.01804418 23.042099 141.02450562 C22.1773143 141.01529083 21.3125296 141.00607605 20.42153931 140.99658203 C8.58889499 141.07654161 -0.10759728 145.06999031 -8.18397522 153.63095093 Z M165.06602478 154.38095093 C155.63371873 168.97035115 158.06602478 182.46832113 158.06602478 200.38095093 C208.55602478 200.71095093 259.04602478 201.04095093 311.06602478 201.38095093 C313.09621152 171.9328681 313.09621152 171.9328681 300.57383728 149.58407593 C292.49872106 142.49004859 284.1078883 141.23583971 273.7686615 141.20394897 C272.37492561 141.19409218 272.37492561 141.19409218 270.95303345 141.18403625 C267.88392548 141.16435813 264.81486637 141.15265175 261.74571228 141.14266968 C260.69386875 141.13859415 259.64202522 141.13451862 258.55830765 141.1303196 C252.98894194 141.10948045 247.4196007 141.0951704 241.85020447 141.08578491 C236.11732647 141.07473578 230.38483822 141.04034662 224.6520977 141.00061321 C220.22693697 140.97438244 215.80186813 140.96608725 211.37663651 140.96250343 C209.26447549 140.95765282 207.15231815 140.94608271 205.04023361 140.92746544 C188.98130031 140.7947294 176.1728202 141.31299058 165.06602478 154.38095093 Z M-21.93397522 224.38095093 C-22.71964119 224.59823223 -23.50530716 224.81551353 -24.31478119 225.03937912 C-38.88673652 229.43241578 -51.21442744 237.66140314 -61.93397522 248.38095093 C-62.63006897 249.07704468 -63.32616272 249.77313843 -64.04335022 250.49032593 C-84.23293217 271.93197497 -88.18197407 298.48335702 -87.99647522 326.69345093 C-87.99144129 328.03133984 -87.98688179 329.36923063 -87.98280334 330.7071228 C-87.97116198 333.93178178 -87.95481225 337.15634053 -87.93397522 340.38095093 C-87.35398217 340.38192774 -86.77398911 340.38290455 -86.17642051 340.38391095 C-51.81395672 340.442162 -17.45156232 340.51594283 16.91082246 340.60993721 C21.03522879 340.6212056 25.15963546 340.63234401 29.28404236 340.6434021 C30.10514987 340.64560578 30.92625738 340.64780947 31.77224693 340.65007993 C45.07373743 340.68546832 58.37522786 340.71032374 71.676748 340.73129795 C85.32170961 340.75304773 98.96661005 340.7860903 112.61151963 340.82965249 C121.03358816 340.85618342 129.45558043 340.87386816 137.87768868 340.88029697 C143.6502451 340.88554645 149.42270549 340.90174858 155.19521048 340.92661659 C158.5274825 340.94064694 161.85943529 340.94817538 165.19175911 340.94595909 C168.80293841 340.94431522 172.4135826 340.96093061 176.02468872 340.98222351 C177.08013529 340.97737593 178.13558187 340.97252836 179.22301167 340.96753389 C188.17397497 341.05498725 188.17397497 341.05498725 192.06602478 344.38095093 C193.95321785 348.15533707 193.56377041 352.80475643 192.31602478 356.75595093 C190.74652671 358.79629842 189.44264363 359.4020861 187.06602478 360.38095093 C184.80592275 360.63575995 184.80592275 360.63575995 182.27905655 360.64266396 C181.31315857 360.65012945 180.34726059 360.65759494 179.35209298 360.66528666 C177.76455386 360.66238456 177.76455386 360.66238456 176.14494324 360.65942383 C175.01854864 360.66521623 173.89215404 360.67100863 172.73162627 360.67697656 C168.94364968 360.6940307 165.15579452 360.69685776 161.36778259 360.69979858 C158.65785919 360.70798844 155.94795009 360.71917345 153.23803711 360.73023987 C147.39677192 360.7525223 141.55552428 360.76752966 135.71422577 360.77760696 C127.26867772 360.79218757 118.8231908 360.81772265 110.3776786 360.84593825 C96.67566564 360.89141749 82.97364389 360.92802762 69.27159119 360.95907593 C55.96070308 360.98925683 42.64983649 361.02360499 29.338974 361.06356812 C28.10841466 361.06726044 28.10841466 361.06726044 26.85299554 361.07102735 C22.73745828 361.08340187 18.62192127 361.09585842 14.50638437 361.10835576 C-19.64037348 361.21194051 -53.78715514 361.30059205 -87.93397522 361.38095093 C-87.93397522 374.25095093 -87.93397522 387.12095093 -87.93397522 400.38095093 C67.82602478 400.38095093 223.58602478 400.38095093 384.06602478 400.38095093 C384.06602478 387.51095093 384.06602478 374.64095093 384.06602478 361.38095093 C380.97203308 361.36636841 377.87804138 361.35178589 374.69029236 361.33676147 C364.47225681 361.28644369 354.2543741 361.21985352 344.03648853 361.14523602 C337.84086213 361.10049236 331.64530209 361.06124487 325.4495697 361.03451538 C319.4712949 361.00852254 313.49327496 360.96814822 307.5151577 360.91776466 C305.2334224 360.90106881 302.95164299 360.88957151 300.66985512 360.88333702 C297.47587436 360.87372572 294.28254964 360.84570112 291.08872986 360.81332397 C289.67100533 360.81547661 289.67100533 360.81547661 288.22463989 360.81767273 C283.35687992 360.7478038 280.01302896 360.56037023 276.06602478 357.38095093 C273.52157561 354.25821785 273.98363123 351.1903533 274.28868103 347.38095093 C275.52917146 344.18933736 277.15369153 343.18405105 280.06602478 341.38095093 C283.43496281 340.78155408 286.76559394 340.81705527 290.18052673 340.83505249 C291.1956282 340.82471481 292.21072968 340.81437714 293.2565918 340.8037262 C296.60599125 340.77426977 299.95478715 340.77279838 303.30430603 340.77157593 C305.62887731 340.75659626 307.95343793 340.73986957 310.27798462 340.72146606 C316.39192694 340.67775674 322.50572567 340.65778534 328.61979675 340.64273071 C334.8604228 340.6231727 341.10089349 340.58120116 347.34141541 340.54110718 C359.58290399 340.46576608 371.82435787 340.41549807 384.06602478 340.38095093 C384.08166701 336.43744797 384.0929075 332.49395744 384.10035706 328.5504303 C384.1049843 326.56192387 384.11293257 324.57342605 384.12095642 322.58493042 C384.16448522 295.01814101 378.86058441 271.51582928 360.06602478 250.38095093 C359.41375916 249.63458374 358.76149353 248.88821655 358.08946228 248.11923218 C343.54769052 232.5154209 321.78258421 222.04844792 300.40705204 221.2861228 C297.12314872 221.24608423 293.84053186 221.23808838 290.55638123 221.24050903 C289.29508251 221.23753791 288.03378379 221.23456679 286.7342639 221.23150563 C283.24454656 221.22346883 279.75484982 221.22164792 276.26512432 221.22090816 C272.49668519 221.21905177 268.7282566 221.21150142 264.95982361 221.20477295 C256.7239579 221.19121198 248.48809707 221.18516819 240.25222206 221.18076229 C235.10466026 221.17799567 229.95710033 221.17375751 224.80953979 221.16925812 C210.54347603 221.15706759 196.27741377 221.14676836 182.01134491 221.14338303 C181.0989047 221.14316346 180.18646449 221.14294389 179.24637458 221.14271767 C178.33180929 221.1424994 177.417244 221.14228112 176.47496462 221.14205623 C174.62185446 221.14161277 172.76874431 221.14116621 170.91563416 221.14071655 C169.99643674 221.14049512 169.07723933 221.14027369 168.13018745 221.14004555 C153.24833286 221.13610068 138.36652733 221.11865517 123.48469168 221.09535703 C108.18741783 221.07160286 92.89016854 221.0591793 77.59287596 221.05801511 C69.01147507 221.05710055 60.43013809 221.05140373 51.84875488 221.0331955 C44.53891905 221.01773944 37.22916687 221.01270629 29.91931778 221.0209336 C26.19490773 221.02482092 22.47066585 221.02400533 18.74627686 221.00987625 C-1.80686357 220.74219485 -1.80686357 220.74219485 -21.93397522 224.38095093 Z M-87.93397522 421.38095093 C-88.21592318 435.52583388 -88.21592318 435.52583388 -81.93397522 447.38095093 C-77.56009037 451.52463131 -73.53501735 453.14011369 -67.55897522 453.69345093 C-60.97088379 453.12551201 -56.63592638 451.53075756 -52.05897522 446.63095093 C-45.58252911 438.45794148 -46.93397522 432.35876498 -46.93397522 421.38095093 C-60.46397522 421.38095093 -73.99397522 421.38095093 -87.93397522 421.38095093 Z M343.06602478 421.38095093 C342.75941306 436.92734863 342.75941306 436.92734863 350.33164978 448.90438843 C354.25245683 452.24237281 358.49291895 453.18073746 363.50352478 453.81845093 C369.55038227 453.07585439 374.95369641 451.0878311 379.00352478 446.38095093 C384.80306568 437.94525507 384.06602478 432.12148988 384.06602478 421.38095093 C370.53602478 421.38095093 357.00602478 421.38095093 343.06602478 421.38095093 Z " fill="#000000" transform="translate(107.93397521972656,18.619049072265625)"/>
<path d="M0 0 C5.53846154 3.07692308 5.53846154 3.07692308 7 6 C7.34708476 11.29304255 7.51351894 14.73358414 4 19 C0.2041916 21.3683249 -2.56735484 21.15790365 -6.875 20.52734375 C-10.04922088 19.73962349 -11.28364907 18.78907026 -13 16 C-14.19540834 12.00415954 -14.44958213 9.06479978 -12.8125 5.1875 C-8.87228441 0.43206739 -6.31888629 -0.76262421 0 0 Z " fill="#000000" transform="translate(345,359)"/>
</svg>
